<svg xmlns="http://www.w3.org/2000/svg" viewBox="0 0 170.61 100.84"><defs><style>.cls-1{fill:#333;}.cls-2{fill:#006ee5;}.cls-3{fill:#0053cc;}.cls-4{fill:#0092ff;}</style></defs><title>资源 6</title><g id="图层_2" data-name="图层 2"><g id="图层_1-2" data-name="图层 1"><path class="cls-1" d="M11,97.82Q9.59,98,8.37,98a12.5,12.5,0,0,1-5.45-.9,4.54,4.54,0,0,1-2.34-3A25.49,25.49,0,0,1,0,87.73a25.36,25.36,0,0,1,.58-6.29,4.6,4.6,0,0,1,2.34-3,12.33,12.33,0,0,1,5.45-.91,25.67,25.67,0,0,1,2.64.15,17.29,17.29,0,0,1,2.32.38v3.34a36.81,36.81,0,0,0-3.92-.29,11.55,11.55,0,0,0-3.66.39,2.14,2.14,0,0,0-1.31,1.67,24.09,24.09,0,0,0-.29,4.59,24.1,24.1,0,0,0,.29,4.59A2.15,2.15,0,0,0,5.75,94a11.57,11.57,0,0,0,3.66.39,25.81,25.81,0,0,0,4-.29v3.4A22.29,22.29,0,0,1,11,97.82Z"/><path class="cls-1" d="M17.83,97.3A3.15,3.15,0,0,1,16,95.14a21.35,21.35,0,0,1-.39-4.85A21.15,21.15,0,0,1,16,85.45a3.11,3.11,0,0,1,1.79-2.14,12,12,0,0,1,4.62-.64,12,12,0,0,1,4.62.64,3.11,3.11,0,0,1,1.79,2.14,21.12,21.12,0,0,1,.39,4.84,21.32,21.32,0,0,1-.39,4.85A3.15,3.15,0,0,1,27,97.3a11.76,11.76,0,0,1-4.61.65A11.76,11.76,0,0,1,17.83,97.3Zm6.68-2.83a1.39,1.39,0,0,0,.7-1.1,23.36,23.36,0,0,0,.13-3.08,23,23,0,0,0-.13-3.07,1.34,1.34,0,0,0-.7-1.08,5.32,5.32,0,0,0-2.08-.28,5.32,5.32,0,0,0-2.08.28,1.34,1.34,0,0,0-.7,1.08,23,23,0,0,0-.13,3.07,23.36,23.36,0,0,0,.13,3.08,1.39,1.39,0,0,0,.7,1.1,5.08,5.08,0,0,0,2.08.29A5.08,5.08,0,0,0,24.51,94.47Z"/><path class="cls-1" d="M35,97.72,30.25,82.9h4L37.68,94,41,82.9h3.92L40.16,97.72Z"/><path class="cls-1" d="M59,91.48H49.77A7.24,7.24,0,0,0,50,93.68a1.4,1.4,0,0,0,1,.86,12.79,12.79,0,0,0,2.88.22q1.71,0,4.5-.23v3a19.89,19.89,0,0,1-2.44.33Q54.48,98,53,98a11.54,11.54,0,0,1-4.74-.73A3.48,3.48,0,0,1,46.35,95a18.2,18.2,0,0,1-.44-4.62,17.36,17.36,0,0,1,.45-4.55,3.76,3.76,0,0,1,1.89-2.34,9.69,9.69,0,0,1,4.46-.78,9,9,0,0,1,4.3.77,3.36,3.36,0,0,1,1.67,2.27A23.28,23.28,0,0,1,59,90.34ZM50.76,86a1.32,1.32,0,0,0-.77.92,9.51,9.51,0,0,0-.22,2.18h5.58a7.6,7.6,0,0,0-.23-2.21,1.38,1.38,0,0,0-.78-.92,4.88,4.88,0,0,0-1.68-.22A5.23,5.23,0,0,0,50.76,86Z"/><path class="cls-1" d="M71.1,89.88a14,14,0,0,0-.16-2.59,1.23,1.23,0,0,0-.65-.94,4.82,4.82,0,0,0-1.74-.22,3.53,3.53,0,0,0-1.85.38,1.82,1.82,0,0,0-.78,1.19,11.05,11.05,0,0,0-.19,2.35v7.67H61.86V82.9h3.78l0,1.83h0c.37-.72,2-2.06,4.71-2.06a5.62,5.62,0,0,1,3,.64,3.07,3.07,0,0,1,1.35,1.86A12.91,12.91,0,0,1,75,88.45v9.27H71.1Z"/><path class="cls-1" d="M78.67,96.94a4.44,4.44,0,0,1-1.09-3.37A7.37,7.37,0,0,1,78,90.84a3.29,3.29,0,0,1,1.41-1.77,7.12,7.12,0,0,1,2.83-.45q1.51,0,4.53.12v-.22a4.28,4.28,0,0,0-.28-1.83,1.37,1.37,0,0,0-1-.67,16,16,0,0,0-2.62-.15q-.9,0-2.24.09t-2.12.17v-3a33.22,33.22,0,0,1,5.64-.47,10.91,10.91,0,0,1,4.24.62,3.19,3.19,0,0,1,1.83,1.86,11.1,11.1,0,0,1,.44,3.53v9H87l-.12-1.8h0C85.69,97.84,83,98,82,98A4.73,4.73,0,0,1,78.67,96.94Zm6.71-2.25a1.94,1.94,0,0,0,.94-.71,4.23,4.23,0,0,0,.44-2.18v-.46H83.28a1.76,1.76,0,0,0-2,1.83c0,.52.19,1.42.89,1.61A7.78,7.78,0,0,0,85.38,94.69Z"/><path class="cls-1" d="M103.24,89.88a14,14,0,0,0-.16-2.59,1.23,1.23,0,0,0-.65-.94,4.82,4.82,0,0,0-1.74-.22,3.53,3.53,0,0,0-1.85.38,1.82,1.82,0,0,0-.78,1.19,11.05,11.05,0,0,0-.19,2.35v7.67H94V82.9h3.79l0,1.83h0c.37-.72,1.85-2.06,4.71-2.06a5.62,5.62,0,0,1,3,.64,3.07,3.07,0,0,1,1.35,1.86,12.91,12.91,0,0,1,.33,3.28v9.27h-3.86Z"/><path class="cls-2" d="M123.09,97.45V94.17q3.39.33,5.79.33a14.88,14.88,0,0,0,2.19-.12,2.54,2.54,0,0,0,1.17-.43,1.19,1.19,0,0,0,.46-.66,4.82,4.82,0,0,0,.1-1.1,4.5,4.5,0,0,0-.11-1.17.89.89,0,0,0-.44-.55,3.22,3.22,0,0,0-1.1-.26l-4.05-.47a6.35,6.35,0,0,1-2.81-1A3.56,3.56,0,0,1,122.91,87a8.85,8.85,0,0,1-.37-2.77,6.38,6.38,0,0,1,.88-3.68,4.06,4.06,0,0,1,2.37-1.64,15.68,15.68,0,0,1,3.83-.39,29.79,29.79,0,0,1,6.17.55v3.2a40.5,40.5,0,0,0-5.38-.36,8.36,8.36,0,0,0-3.28.41,1,1,0,0,0-.55.58,3.91,3.91,0,0,0-.11,1.07,4.47,4.47,0,0,0,.11,1.19.78.78,0,0,0,.48.51,5.43,5.43,0,0,0,1.25.26l4.35.52a7,7,0,0,1,2.09.51,2.74,2.74,0,0,1,1.3,1.23,7.8,7.8,0,0,1,.66,3.67,7.55,7.55,0,0,1-.83,3.94,3.8,3.8,0,0,1-2.22,1.72,13.64,13.64,0,0,1-3.65.4A47,47,0,0,1,123.09,97.45Z"/><path class="cls-2" d="M156,100.7v.14h-4.3l-2.07-3q-1,.08-2.34.08a13.36,13.36,0,0,1-5.54-.83,3.81,3.81,0,0,1-2.08-2.7,31.13,31.13,0,0,1-.43-6.17,31.12,31.12,0,0,1,.43-6.17,3.81,3.81,0,0,1,2.08-2.7,13.35,13.35,0,0,1,5.54-.83,13.45,13.45,0,0,1,5.55.83,3.8,3.8,0,0,1,2.09,2.7,31.16,31.16,0,0,1,.43,6.17q0,2.78-.12,4.33a8.65,8.65,0,0,1-.58,2.63,3.53,3.53,0,0,1-1.45,1.7Zm-8.63-6.2-1.93-2.84h4.05l1.41,2a4,4,0,0,0,.41-1.7q.08-1.14.08-3.74a31.77,31.77,0,0,0-.21-4.53,1.76,1.76,0,0,0-1-1.47,9.28,9.28,0,0,0-2.94-.3,9.13,9.13,0,0,0-2.92.3,1.8,1.8,0,0,0-1,1.49,29.76,29.76,0,0,0-.22,4.52,29.75,29.75,0,0,0,.22,4.52,1.8,1.8,0,0,0,1,1.49,9.12,9.12,0,0,0,2.92.3Z"/><path class="cls-2" d="M158.67,97.67v-19h3.91V94.12h8v3.56Z"/><path class="cls-1" d="M117,94.42a1.4,1.4,0,0,1-1-.86,6.17,6.17,0,0,1-.22-1.77V86h3.37v-3.2h-3.37v-4.3h-3.86v4.3H109V86h2.85v4.55h0a18.45,18.45,0,0,0,.27,4.33,3.71,3.71,0,0,0,2.1,2.25,12.6,12.6,0,0,0,4.93.73v-3.2A10.16,10.16,0,0,1,117,94.42Z"/><path class="cls-2" d="M86.48,49.77c0-.58,0-1.14,0-1.69A15,15,0,0,1,74.88,26.16L58.77,16.88l0,33.71L88,67.42A94,94,0,0,1,86.48,49.77Z"/><path class="cls-2" d="M101.21,26.06a15,15,0,0,1-1.54,16.59l1.14.73a64.31,64.31,0,0,0,16.25,7.23l.12,0,0-33.81Z"/><path class="cls-3" d="M86.51,49.74c0-.58,0-1.14,0-1.69a15,15,0,0,1-11.16-7L58.8,50.59,88,67.42h0A93.83,93.83,0,0,1,86.51,49.74Z"/><path class="cls-4" d="M88,18.25a15,15,0,0,1,13.24,7.81l16-9.22L88,0,58.77,16.88l16.11,9.29A15,15,0,0,1,88,18.25Zm11.54-1a13.24,13.24,0,0,0,1.85-5.76l0-.23c0-.19.08-.12.13,0h0l0,0a13.29,13.29,0,0,1,.94,12A17.56,17.56,0,0,0,98.26,19,13.35,13.35,0,0,0,99.52,17.29Zm-25.28-5.8,0,0h0c0-.08.11-.15.13,0,0,0,.77,4.18,1.86,6a13,13,0,0,0,1.32,1.78,17.56,17.56,0,0,0-4.18,4.49A13.3,13.3,0,0,1,74.24,11.49Z"/></g></g></svg>