<?xml version="1.0" encoding="UTF-8"?>
<svg width="265px" height="49px" viewBox="0 0 265 49" version="1.1" xmlns="http://www.w3.org/2000/svg" xmlns:xlink="http://www.w3.org/1999/xlink">
    <!-- Generator: Sketch 51.2 (57519) - http://www.bohemiancoding.com/sketch -->
    <title>资源 9</title>
    <desc>Created with Sketch.</desc>
    <defs></defs>
    <g id="Covenant" stroke="none" stroke-width="1" fill="none" fill-rule="evenodd">
        <g id="资源-9" fill-rule="nonzero">
            <path d="M68.1633787,36.8145889 C67.0191953,36.9204119 65.9624148,36.9733234 64.9930372,36.9733234 C62.7749292,37.1078486 60.5555374,36.7323714 58.4974128,35.874392 C57.0891047,35.1305708 56.0697816,33.7917546 55.7084658,32.2112874 C55.1641503,29.6745456 54.9319192,27.0779777 55.0171883,24.4821366 C54.9342801,21.9025235 55.1665069,19.3224109 55.7084658,16.8018272 C56.0785629,15.2256807 57.0953333,13.8902174 58.4974128,13.1387226 C60.5526909,12.2696866 62.7736602,11.8897675 64.9930372,12.0275809 C66.0442468,12.0332128 67.0944746,12.0943456 68.1395415,12.2107361 C69.0704528,12.3009512 69.994291,12.4559739 70.9046514,12.6747293 L70.9046514,16.7529858 C69.354558,16.5497899 67.7949743,16.431588 66.2325692,16.3988857 C64.7630042,16.3177131 63.2902413,16.4784887 61.87037,16.8750893 C61.0343906,17.2238732 60.4406156,17.9993534 60.3090365,18.9142176 C60.0196177,20.7668326 59.9038775,22.6435666 59.9633977,24.5187677 C59.9039504,26.3939676 60.0196902,28.2706944 60.3090365,30.1233177 C60.4428912,31.0371786 61.0358836,31.8116368 61.87037,32.162446 C63.2903175,32.558632 64.763015,32.7194004 66.2325692,32.6386496 C67.8282722,32.6474737 69.4222265,32.529083 71,32.2845495 L71,36.4482784 C70.061563,36.6224559 69.1146517,36.7447364 68.1633787,36.8145889 Z" id="Shape" fill="#333333"></path>
            <path d="M76.7482118,36.1683668 C75.6179825,35.6755012 74.7863297,34.6835266 74.5024192,33.4896417 C74.1101592,31.5097136 73.9469031,29.491702 74.0158308,27.4749119 C73.9456592,25.4622027 74.1089311,23.4481568 74.5024192,21.4725836 C74.7834992,20.2870498 75.6114623,19.3031544 76.7357352,18.8186616 C78.5864186,18.1819169 80.5448038,17.9122589 82.4999362,18.0249653 C84.4550685,17.9122589 86.4134537,18.1819169 88.2641371,18.8186616 C89.38841,19.3031544 90.2163731,20.2870498 90.4974531,21.4725836 C90.8912712,23.4481112 91.0545461,25.4621951 90.9840415,27.4749119 C91.0532973,29.4917095 90.8900382,31.5097582 90.4974531,33.4896417 C90.2135426,34.6835266 89.3818898,35.6755012 88.2516605,36.1683668 C86.4076199,36.8153682 84.4520643,37.0894372 82.4999362,36.9744646 C80.547808,37.0894372 78.5922524,36.8153682 76.7482118,36.1683668 Z M85.0825976,32.6587409 C85.5835299,32.3763571 85.9107649,31.8652267 85.9559614,31.2945754 C86.0826367,30.0213603 86.1243167,28.7412025 86.0807277,27.4625104 C86.1121053,26.1912482 86.057919,24.9193231 85.9185315,23.6552484 C85.8762796,23.0899562 85.5470514,22.5850624 85.0451677,22.3158859 C84.2119015,22.0299995 83.3296911,21.9119555 82.4500296,21.9686438 C81.5703682,21.9119555 80.6881578,22.0299995 79.8548915,22.3158859 C79.3530079,22.5850624 79.0237797,23.0899562 78.9815278,23.6552484 C78.8421403,24.9193231 78.787954,26.1912482 78.8193316,27.4625104 C78.7887255,28.7378925 78.8429089,30.0138914 78.9815278,31.2821739 C79.0267243,31.8528252 79.3539593,32.3639556 79.8548915,32.6463394 C80.6852923,32.9445846 81.5692244,33.0670831 82.4500296,33.005983 C83.342376,33.0763167 84.2395901,32.957972 85.0825976,32.6587409 Z" id="Shape" fill="#333333"></path>
            <polygon id="Shape" fill="#333333" points="97.8444748 37 92 19 96.9113233 19 101.14734 32.5182186 105.186903 19 110 19 104.167804 37"></polygon>
            <path d="M127,28.9234792 L115.753667,28.9234792 C115.708069,29.8439316 115.802393,30.7660296 116.033306,31.657204 C116.238732,32.1959853 116.694777,32.5950098 117.249126,32.7210064 C118.402468,32.9459451 119.577144,33.0372389 120.750686,32.9931418 C122.136721,32.9931418 123.960451,32.8983067 126.221875,32.7086366 L126.221875,36.4195751 C125.242243,36.617844 124.251479,36.7541729 123.255275,36.8277784 C122.03135,36.9349833 120.81553,36.9885857 119.607816,36.9885857 C117.687082,37.066778 115.771042,36.7425821 113.97857,36.0361115 C112.789611,35.5263001 111.894269,34.4924009 111.546931,33.228168 C111.129642,31.3542504 110.94986,29.4336918 111.01197,27.5133226 C110.949652,25.6209007 111.13362,23.7284053 111.559089,21.8850657 C111.89584,20.6369588 112.728535,19.5880598 113.856988,18.9905337 C115.564257,18.2377687 117.422498,17.9071289 119.279545,18.0256896 C121.072658,17.9015455 122.868222,18.2286726 124.507569,18.9781639 C125.556117,19.5662008 126.298327,20.5926309 126.537988,21.7861074 C126.858929,23.6768129 126.993337,25.5954191 126.939209,27.5133226 L127,28.9234792 Z M116.969487,22.1448314 C116.496228,22.349646 116.148116,22.7728112 116.033306,23.2828526 C115.842326,24.1682375 115.752571,25.0731135 115.765825,25.979468 L122.489309,25.979468 C122.528233,25.0592092 122.434013,24.1381262 122.20967,23.2457432 C122.081855,22.7384936 121.732276,22.3189939 121.261331,22.1077221 C120.601277,21.8965295 119.910001,21.8044298 119.218754,21.8355866 C118.452784,21.7990978 117.686644,21.9038659 116.957329,22.1448314 L116.969487,22.1448314 Z" id="Shape" fill="#333333"></path>
            <path d="M142.209133,26.6309283 C142.241879,25.5955205 142.176831,24.5593575 142.014825,23.5357886 C141.955184,23.0564844 141.660111,22.6365776 141.225449,22.412456 C140.54335,22.1983937 139.82713,22.1092829 139.112352,22.1495484 C138.335443,22.0973122 137.558748,22.2543024 136.865668,22.6036616 C136.366896,22.9315672 136.024983,23.4448758 135.918417,24.0257528 C135.739947,24.9510872 135.662593,25.8925551 135.687676,26.8340842 L135.687676,36 L131,36 L131,18.2895865 L135.590522,18.2895865 L135.590522,20.4764999 C136.039859,19.6160749 138.01937,18.0147285 141.310459,18.0147285 C142.57346,17.9322901 143.834876,18.1970957 144.953731,18.7795507 C145.772075,19.2836393 146.359793,20.0804557 146.593203,21.0023151 C146.89646,22.2866657 147.031144,23.6039737 146.993963,24.9220288 L146.993963,36 L142.306287,36 L142.209133,26.6309283 Z" id="Shape" fill="#333333"></path>
            <path d="M151.361274,35.7975673 C150.352858,34.6347423 149.869847,33.09307 150.030211,31.5490803 C149.985631,30.3932658 150.155502,29.2392646 150.530886,28.1477989 C150.831194,27.2281268 151.441251,26.4468017 152.25272,25.9425725 C153.355534,25.5186692 154.531303,25.3279231 155.7086,25.3819217 C156.9379,25.3819217 158.78185,25.4317573 161.240451,25.5314286 L161.240451,25.3196272 C161.290873,24.5432849 161.174169,23.7650894 160.898526,23.0396473 C160.639499,22.5840862 160.188847,22.2760346 159.677367,22.2049006 C158.617703,22.0533284 157.547626,21.9908237 156.47793,22.018017 C155.745235,22.018017 154.833436,22.0553937 153.742534,22.1301472 C152.651632,22.2049006 151.78868,22.2755011 151.153677,22.3419486 L151.153677,18.6042767 C153.42895,18.2095577 155.733088,18.0136574 158.041014,18.0187081 C159.799999,17.9244568 161.559842,18.1870041 163.218728,18.7911603 C164.25338,19.2032516 165.066414,20.0463501 165.453449,21.1085169 C165.863133,22.5355105 166.044565,24.020575 165.990759,25.5065108 L165.990759,36.7195264 L161.557952,36.7195264 L161.411413,34.4769233 C159.958234,36.8690333 156.722162,36.9687045 155.452157,36.9687045 C153.992214,37.1227881 152.529532,36.7040516 151.361274,35.7975673 Z M159.555251,32.9943134 C160.018499,32.8279681 160.419626,32.5188523 160.703141,32.1097311 C161.116486,31.269486 161.302002,30.3317266 161.240451,29.3936895 L161.240451,28.8081209 L157.027452,28.8081209 C156.393432,28.7182723 155.753154,28.9214278 155.280905,29.362287 C154.808656,29.8031462 154.553588,30.4358239 154.585134,31.0881008 C154.585134,31.7359639 154.817154,32.8572654 155.671965,33.0939847 C156.959307,33.3339826 158.281366,33.3000497 159.555251,32.9943134 Z" id="Shape" fill="#333333"></path>
            <path d="M181.200631,26.6309283 C181.233353,25.5955205 181.168354,24.5593575 181.006471,23.5357886 C180.946875,23.0564844 180.652026,22.6365776 180.217694,22.412456 C179.536112,22.1983937 178.820435,22.1092829 178.106199,22.1495484 C177.329879,22.0973122 176.553774,22.2543024 175.861219,22.6036616 C175.362826,22.9315672 175.021172,23.4448758 174.914687,24.0257528 C174.736352,24.9510872 174.659057,25.8925551 174.684121,26.8340842 L174.684121,36 L170,36 L170,18.2895865 L174.599176,18.2895865 L174.599176,20.4764999 C175.048172,19.6160749 176.844156,18.0147285 180.314774,18.0147285 C181.576817,17.9322901 182.837276,18.1970957 183.955283,18.7795507 C184.773006,19.2836393 185.360279,20.0804557 185.593512,21.0023151 C185.896538,22.2866657 186.031121,23.6039737 185.993968,24.9220288 L185.993968,36 L181.309847,36 L181.200631,26.6309283 Z" id="Shape" fill="#333333"></path>
            <path d="M205.651324,36.4035653 L205.651324,32.3662726 C208.35701,32.6370666 210.667618,32.7724636 212.583148,32.7724636 C213.459453,32.7896074 214.335793,32.740238 215.20503,32.6247578 C215.707453,32.5706904 216.188859,32.3887865 216.605761,32.0954785 C216.875496,31.8986265 217.0702,31.61141 217.156476,31.2830965 C217.246715,30.8379808 217.286885,30.3836753 217.276197,29.9291263 C217.293716,29.4452277 217.249441,28.9610563 217.144504,28.4889945 C217.066931,28.1984593 216.876399,27.9535956 216.617733,27.8120094 C216.200545,27.6263343 215.754702,27.5179889 215.300806,27.4919801 L210.452121,26.9134656 C209.25159,26.7835992 208.098398,26.3616669 207.087971,25.6825837 C206.321819,25.13873 205.74995,24.3519082 205.459771,23.4423786 C205.137414,22.3371567 204.987895,21.1862973 205.016804,20.0328356 C204.914407,18.4481613 205.281746,16.8688068 206.070346,15.5031901 C206.744198,14.4961958 207.753644,13.7780278 208.907725,13.4845438 C210.411177,13.1314934 211.951215,12.9702638 213.493025,13.0044998 C215.971471,12.9656346 218.447106,13.1925226 220.879788,13.6814849 L220.879788,17.620307 C218.744756,17.3256604 216.592998,17.1776266 214.438818,17.1771895 C213.110249,17.0750255 211.775211,17.2465994 210.511981,17.6818511 C210.20551,17.8153666 209.966936,18.0740306 209.853518,18.3957627 C209.750815,18.8264432 209.706498,19.2696506 209.721825,19.7128063 C209.701756,20.2049156 209.74605,20.6975672 209.853518,21.1775558 C209.937795,21.4684295 210.150883,21.7012043 210.428177,21.8053056 C210.913036,21.9721158 211.415344,22.0795346 211.924685,22.1253349 L217.132532,22.7653935 C217.993065,22.8408353 218.837084,23.0525853 219.634693,23.3931433 C220.303681,23.7044766 220.851718,24.2375892 221.191061,24.9071281 C221.805802,26.3250813 222.076934,27.8751516 221.981218,29.4244647 C222.083096,31.1036992 221.739655,32.7798685 220.987536,34.2741395 C220.420989,35.3422984 219.471915,36.1414582 218.34171,36.5020358 C216.913351,36.867896 215.443435,37.0335138 213.971907,36.9943886 C211.187983,37.0093441 208.406817,36.8118606 205.651324,36.4035653 Z" id="Shape" fill="#006EE5"></path>
            <path d="M247,39.8306234 L247,40 L241.616657,40 L239.025141,36.3705021 C238.190514,36.4350265 237.214,36.4672887 236.0956,36.4672887 C233.73623,36.6099821 231.372358,36.2677396 229.159851,35.4631276 C227.808161,34.8310812 226.843371,33.6208317 226.555816,32.1965795 C226.120396,29.7317956 225.940062,27.2312346 226.017481,24.731912 C225.939979,22.2325879 226.120314,19.7320189 226.555816,17.2672446 C226.843371,15.8429924 227.808161,14.6327429 229.159851,14.0006965 C233.684879,12.6664345 238.518841,12.6664345 243.043869,14.0006965 C244.401654,14.6282626 245.372049,15.8397185 245.660424,17.2672446 C246.095596,19.7320571 246.275929,22.2325943 246.198758,24.731912 C246.198758,26.9741352 246.148681,28.720327 246.048525,29.9704874 C245.979876,31.0612383 245.734865,32.1348685 245.3224,33.1523472 C244.963706,34.0097819 244.326677,34.7315237 243.507087,35.2090627 L247,39.8306234 Z M236.208275,32.365956 L233.79203,28.9300313 L238.862388,28.9300313 L240.627624,31.3496966 C240.953603,30.7091015 241.12889,30.0067469 241.14092,29.2929811 C241.20769,28.3735083 241.241075,26.8652503 241.241075,24.768207 C241.288644,22.9376401 241.200784,21.1061282 240.978167,19.2876651 C240.924141,18.5197582 240.445485,17.8398001 239.726227,17.5092112 C238.527265,17.1990065 237.28461,17.0764698 236.045523,17.1462614 C234.814686,17.0759144 233.580179,17.1984814 232.389857,17.5092112 C231.670256,17.8519101 231.193443,18.5384653 231.137917,19.3118618 C230.90262,21.1252791 230.810545,22.9533774 230.86249,24.7803053 C230.810496,26.6072337 230.902571,28.4353357 231.137917,30.2487489 C231.193443,31.0221454 231.670256,31.7087006 232.389857,32.0513995 C233.580139,32.3623392 234.814681,32.4849097 236.045523,32.4143493 L236.208275,32.365956 Z" id="Shape" fill="#006EE5"></path>
            <polygon id="Shape" fill="#006EE5" points="250 36.9879011 250 14 254.924433 14 254.924433 32.6927933 265 32.6927933 265 37"></polygon>
            <path d="M198.375369,32.7443157 C197.83632,32.6178301 197.39286,32.2172568 197.193103,31.6763841 C197.005508,30.9608323 196.917893,30.2204475 196.933005,29.478432 L196.933005,22.2512674 L200.917241,22.2512674 L200.917241,18.2775687 L196.933005,18.2775687 L196.933005,13 L192.369458,13 L192.369458,18.3396577 L189,18.3396577 L189,22.3133565 L192.369458,22.3133565 L192.369458,27.9013703 C192.274168,29.7006226 192.381313,31.5054004 192.68867,33.2782815 C193.092081,34.5432506 193.997735,35.5624408 195.171429,36.0722884 C197.037445,36.7790438 199.019059,37.0872381 201,36.9787884 L201,33.0050897 C200.118664,33.0195755 199.238487,32.9321242 198.375369,32.7443157 Z" id="Shape" fill="#333333"></path>
            <path d="M19.9332192,36.0811078 C19.9332192,35.6541378 19.9332192,35.2515661 19.9332192,34.8611935 C16.3770656,34.4732337 13.2410225,32.316693 11.5604444,29.1035465 C9.8798663,25.8904 9.87326063,22.0384182 11.5428082,18.8193208 L0,12 L0,36.6788658 L21,49 C20.2458175,44.737455 19.8886398,40.411974 19.9332192,36.0811078 Z" id="Shape" fill="#006EE5"></path>
            <path d="M31.1368821,18.8204243 C33.3048306,22.7800781 32.8554198,27.6555237 30,31.1539221 L30.8526616,31.696596 C34.6076224,34.013023 38.666657,35.7978661 42.9134981,37 L43,37 L43,12 L31.1368821,18.8204243 Z" id="Shape" fill="#006EE5"></path>
            <path d="M20.8711517,36.281388 C20.8711517,35.8618297 20.8711517,35.4662461 20.8711517,35.0826498 C17.4253787,34.7013593 14.354346,32.82717 12.5427594,30 L0,36.8927445 L22,49 C21.2042054,44.8040583 20.8262332,40.5454861 20.8711517,36.281388 Z" id="Shape" fill="#0053CC"></path>
            <path d="M21.5368571,13.3121019 C25.6002052,13.2947244 29.345842,15.4740973 31.2917143,18.9878981 L43,12.2350318 L21.5245714,0 L0,12.2592357 L11.8802857,19 C13.8060496,15.5119837 17.5061301,13.3325682 21.5368571,13.3121019 Z M30.0385714,12.6101911 C30.813183,11.3359516 31.2797896,9.90324424 31.4022857,8.42292994 L31.4022857,8.20509554 C31.4022857,8.05987261 31.4022857,8.12038217 31.5005714,8.20509554 C33.1234366,10.8365522 33.378864,14.0714869 32.1885714,16.9184713 C31.3415646,15.7135405 30.290081,14.6614123 29.0802857,13.8082803 C29.4333091,13.4189107 29.7537825,13.0020526 30.0385714,12.5617834 L30.0385714,12.6101911 Z M11.4011429,8.33821656 C11.4011429,8.33821656 11.4748571,8.22929936 11.4994286,8.33821656 C11.7649139,9.84146145 12.2231519,11.3054046 12.8631429,12.6949045 C13.1485991,13.1530052 13.4733061,13.5862186 13.8337143,13.9898089 C12.6200031,14.8884687 11.5761993,15.990391 10.75,17.2452229 C9.48100517,14.3490223 9.72397456,11.0254354 11.4011429,8.33821656 Z" id="Shape" fill="#0092FF"></path>
        </g>
    </g>
</svg>